<?xml version="1.0" encoding="UTF-8" standalone="no"?><!DOCTYPE svg PUBLIC "-//W3C//DTD SVG 1.1//EN" "http://www.w3.org/Graphics/SVG/1.1/DTD/svg11.dtd"><svg width="100%" height="100%" viewBox="0 0 1042 625" version="1.1" xmlns="http://www.w3.org/2000/svg" xmlns:xlink="http://www.w3.org/1999/xlink" xml:space="preserve" xmlns:serif="http://www.serif.com/" style="fill-rule:evenodd;clip-rule:evenodd;stroke-linejoin:round;stroke-miterlimit:2;"><path id="Mickey" d="M592.387,172.597c-0.877,-5.837 -1.327,-11.78 -1.327,-17.805c0,-81.983 83.218,-148.542 185.72,-148.542c102.502,0 185.72,66.559 185.72,148.542c0,81.982 -83.218,148.541 -185.72,148.541c-6.796,0 -13.507,-0.292 -20.108,-0.865c12.941,27.369 20.108,57.516 20.108,89.167c0,125.348 -112.411,227.115 -250.87,227.115c-138.459,0 -250.87,-101.767 -250.87,-227.115c-0,-32.102 7.373,-62.657 20.667,-90.343c-10.03,1.343 -20.324,2.041 -30.82,2.041c-102.502,0 -185.72,-66.559 -185.72,-148.541c-0,-81.983 83.218,-148.542 185.72,-148.542c102.501,0 185.72,66.559 185.72,148.542c-0,7.017 -0.61,13.922 -1.789,20.673c24.297,-7.107 50.203,-10.945 77.092,-10.945c23.012,-0 45.304,2.811 66.477,8.077Z" style="fill:#f51315;"/></svg>