<?xml version="1.0" encoding="UTF-8" standalone="no"?>
<!DOCTYPE svg PUBLIC "-//W3C//DTD SVG 1.1//EN" "http://www.w3.org/Graphics/SVG/1.1/DTD/svg11.dtd">
<svg width="100%" height="100%" viewBox="0 0 104 135" version="1.1" xmlns="http://www.w3.org/2000/svg" xmlns:xlink="http://www.w3.org/1999/xlink" xml:space="preserve" xmlns:serif="http://www.serif.com/" style="fill-rule:evenodd;clip-rule:evenodd;stroke-linecap:round;stroke-linejoin:round;stroke-miterlimit:1.5;">
    <g transform="matrix(0.145997,0,0,0.336611,-20.3555,-219.937)">
        <rect id="Artboard1" x="139.424" y="653.387" width="708.843" height="398.345" style="fill:none;"/>
        <g id="Artboard11" serif:id="Artboard1">
            <g id="eyes-logo" transform="matrix(1.6538,0,0,0.686747,-1144.06,471.37)">
                <g id="left-eye" transform="matrix(2.6295,0,0,2.55577,-477.837,-766.533)">
                    <g transform="matrix(1.30349,0,0,1.44762,472.388,-841.908)">
                        <ellipse cx="39.423" cy="939.731" rx="19.064" ry="19.076" style="fill:white;stroke:black;stroke-width:2.97px;"/>
                    </g>
                    <g transform="matrix(0.676056,0,0,0.723812,502.018,-157.948)">
                        <ellipse cx="39.423" cy="939.731" rx="19.064" ry="19.076" style="stroke:black;stroke-width:2.22px;"/>
                    </g>
                    <g transform="matrix(0.23032,0,0,0.230372,523.981,301.983)">
                        <ellipse cx="39.423" cy="939.731" rx="19.064" ry="19.076" style="fill:white;stroke:black;stroke-width:6.73px;"/>
                    </g>
                </g>
                <g id="right-eye" transform="matrix(2.6295,0,0,2.55577,-313.136,-766.533)">
                    <g transform="matrix(1.30349,0,0,1.44762,472.388,-841.908)">
                        <ellipse cx="39.423" cy="939.731" rx="19.064" ry="19.076" style="fill:white;stroke:black;stroke-width:2.97px;"/>
                    </g>
                    <g transform="matrix(0.676056,0,0,0.723812,493.237,-157.325)">
                        <ellipse cx="39.423" cy="939.731" rx="19.064" ry="19.076" style="stroke:black;stroke-width:2.22px;"/>
                    </g>
                    <g transform="matrix(0.23032,0,0,0.230372,506.418,301.983)">
                        <ellipse cx="39.423" cy="939.731" rx="19.064" ry="19.076" style="fill:white;stroke:black;stroke-width:6.73px;"/>
                    </g>
                </g>
                <g id="hair" transform="matrix(1.8651,0.352886,-0.323469,1.8651,-674.364,-893.646)">
                    <g transform="matrix(2.20513,0,0,2.30322,79.6093,422.497)">
                        <path d="M410.189,51.442C410.049,51.827 409.623,52.026 409.237,51.886C408.852,51.746 408.652,51.319 408.793,50.934C409.69,48.464 415.983,41.096 422.084,35.3C426.199,31.389 430.241,28.21 432.459,27.611C432.855,27.504 433.263,27.738 433.37,28.134C433.477,28.53 433.242,28.939 432.846,29.046C430.753,29.611 426.992,32.685 423.107,36.377C417.208,41.983 411.058,49.054 410.189,51.442Z" style="fill:rgb(67,255,0);"/>
                    </g>
                    <g transform="matrix(2.20513,0,0,2.30322,79.6093,422.497)">
                        <path d="M408.811,49.865C409.087,50.168 409.066,50.638 408.764,50.915C408.461,51.192 407.99,51.171 407.714,50.868C406.805,49.873 406.421,48.427 406.364,46.841C406.287,44.697 406.791,42.293 407.063,40.653C408.627,31.227 413.067,22.44 423.313,19.984C423.712,19.889 424.114,20.135 424.209,20.534C424.305,20.933 424.059,21.334 423.66,21.43C414.051,23.732 409.996,32.057 408.529,40.897C408.27,42.458 407.776,44.745 407.85,46.787C407.893,47.991 408.12,49.11 408.811,49.865Z" style="fill:rgb(67,255,0);"/>
                    </g>
                    <g transform="matrix(2.20513,0,0,2.30322,79.6093,422.497)">
                        <path d="M409.593,48.959C409.454,49.345 409.028,49.546 408.642,49.407C408.256,49.269 408.055,48.843 408.194,48.457C409.633,44.45 410.764,37.522 413.375,32.347C415.224,28.682 417.813,25.892 421.633,25.357C422.039,25.3 422.415,25.584 422.472,25.99C422.529,26.396 422.245,26.772 421.839,26.829C418.504,27.296 416.316,29.817 414.702,33.016C412.119,38.136 411.016,44.996 409.593,48.959Z" style="fill:rgb(67,255,0);"/>
                    </g>
                    <g transform="matrix(2.20513,0,0,2.30322,79.6093,422.497)">
                        <path d="M409.85,51.136C409.597,51.46 409.129,51.517 408.806,51.264C408.483,51.011 408.426,50.544 408.679,50.221C411.502,46.613 417.35,44.619 423.391,42.57C429.147,40.617 435.081,38.598 438.404,34.744C438.672,34.434 439.142,34.399 439.452,34.667C439.763,34.935 439.798,35.404 439.53,35.715C436.054,39.746 429.888,41.935 423.868,43.977C418.134,45.923 412.529,47.712 409.85,51.136Z" style="fill:rgb(67,255,0);"/>
                    </g>
                    <g transform="matrix(2.20513,0,0,2.30322,79.6093,422.497)">
                        <path d="M440.339,31.055C440.47,30.841 440.706,30.698 440.974,30.698C441.215,30.698 441.374,30.795 441.482,30.895C441.64,31.04 441.751,31.24 441.721,31.527C441.714,31.589 441.659,31.855 441.355,32.14C440.365,33.066 434.38,37.699 433.734,37.996C426.69,41.236 419.046,43.555 411.797,46.291C411.414,46.436 410.984,46.242 410.84,45.859C410.695,45.475 410.889,45.046 411.272,44.901C418.489,42.176 426.1,39.871 433.112,36.645C433.727,36.363 439.399,31.935 440.339,31.055ZM440.598,32.082C440.693,32.14 440.815,32.184 440.974,32.184C440.837,32.184 440.708,32.147 440.598,32.082Z" style="fill:rgb(67,255,0);"/>
                    </g>
                    <g transform="matrix(2.20513,0,0,2.30322,79.6093,422.497)">
                        <path d="M395.536,28.746C395.471,28.622 395.441,28.479 395.456,28.33C395.504,27.853 395.834,27.728 396.01,27.683C396.178,27.639 396.484,27.598 396.76,27.917C396.778,27.939 396.866,28.05 396.944,28.27C397.212,29.027 398.533,33.285 399.057,34.482C401.287,39.564 404.909,42.734 408.095,47.031C408.339,47.361 408.27,47.827 407.94,48.071C407.611,48.315 407.145,48.246 406.901,47.916C403.646,43.527 399.974,40.27 397.696,35.079C397.163,33.863 395.815,29.535 395.543,28.767C395.541,28.76 395.538,28.753 395.536,28.746ZM396.468,29.096C396.648,29.033 396.894,28.884 396.935,28.478C396.906,28.765 396.718,28.997 396.468,29.096Z" style="fill:rgb(67,255,0);"/>
                    </g>
                    <g transform="matrix(2.20513,0,0,2.30322,79.6093,422.497)">
                        <path d="M403.201,23.743C402.932,23.631 402.743,23.366 402.743,23.057C402.743,22.596 402.958,22.389 403.07,22.303C403.315,22.116 403.641,22.03 404.015,22.3C404.132,22.384 404.344,22.64 404.531,23.024C404.821,23.617 405.16,24.574 405.235,25.056C405.498,26.739 405.266,28.543 405.213,30.23C405.129,32.909 405.042,36.394 405.731,39.492C406.168,41.454 406.912,43.261 408.212,44.562C408.502,44.852 408.502,45.322 408.212,45.613C407.922,45.903 407.451,45.903 407.161,45.613C405.67,44.121 404.781,42.065 404.28,39.814C403.564,36.592 403.64,32.969 403.727,30.184C403.777,28.587 404.015,26.878 403.767,25.285C403.716,24.958 403.39,24.179 403.201,23.743Z" style="fill:rgb(67,255,0);"/>
                    </g>
                    <g transform="matrix(2.20513,0,0,2.30322,79.6093,422.497)">
                        <path d="M417.095,30.478C416.64,31.544 415.476,34.306 415.369,34.901C414.999,36.957 415.005,38.698 414.753,40.112C414.532,41.345 414.121,42.353 413.249,43.15C412.421,43.907 411.148,44.483 409.108,44.812C408.703,44.877 408.322,44.601 408.256,44.196C408.191,43.792 408.467,43.41 408.872,43.345C410.775,43.038 411.878,42.542 412.516,41.77C413.151,41.002 413.307,39.997 413.433,38.783C413.556,37.584 413.625,36.201 413.906,34.637C414.059,33.79 415.546,29.821 416.127,29.113C416.552,28.595 417.027,28.713 417.265,28.866C417.402,28.955 417.665,29.195 417.665,29.755C417.665,30.106 417.422,30.4 417.095,30.478Z" style="fill:rgb(67,255,0);"/>
                    </g>
                    <g transform="matrix(2.20513,0,0,2.30322,79.6093,422.497)">
                        <path d="M410.162,46.271C409.791,46.444 409.348,46.283 409.175,45.911C409.002,45.539 409.163,45.097 409.535,44.924C416.379,41.736 423.151,38.646 429.812,35.013C430.971,34.381 432.514,33.572 433.578,32.742C433.924,32.473 434.216,32.206 434.406,31.939C434.497,31.811 434.583,31.702 434.562,31.583C434.539,31.455 434.404,31.373 434.22,31.262C433.845,31.037 433.283,30.843 432.498,30.669C432.097,30.58 431.844,30.183 431.933,29.783C432.022,29.382 432.419,29.129 432.82,29.218C434.033,29.487 434.819,29.832 435.286,30.192C435.739,30.541 435.955,30.932 436.025,31.321C436.133,31.926 435.86,32.613 435.222,33.27C434.166,34.357 432.042,35.49 430.524,36.318C423.835,39.966 417.036,43.07 410.162,46.271Z" style="fill:rgb(67,255,0);"/>
                    </g>
                    <g transform="matrix(2.20513,0,0,2.30322,79.6093,422.497)">
                        <path d="M436.008,12.984C435.618,13.147 435.146,13.39 434.621,13.683C431.756,15.281 427.457,18.314 426.215,18.959C418.811,22.803 408.475,37.364 405.855,45.693C405.732,46.084 405.315,46.302 404.923,46.179C404.532,46.056 404.314,45.638 404.437,45.247C407.145,36.636 417.875,21.615 425.53,17.64C426.682,17.042 430.478,14.373 433.295,12.729C434.615,11.958 435.75,11.417 436.363,11.323C436.869,11.246 437.212,11.405 437.409,11.611C437.64,11.851 437.84,12.383 437.405,13.226C437.217,13.59 436.769,13.734 436.404,13.546C436.18,13.43 436.04,13.216 436.008,12.984Z" style="fill:rgb(67,255,0);"/>
                    </g>
                    <g transform="matrix(2.20513,0,0,2.30322,79.6093,422.497)">
                        <path d="M416.516,33.421C416.34,33.792 415.896,33.95 415.526,33.774C415.155,33.598 414.997,33.154 415.173,32.784C417.945,26.944 423.747,24.713 429.818,22.909C435.538,21.21 441.497,19.909 444.967,15.79C445.232,15.476 445.701,15.436 446.015,15.7C446.328,15.964 446.368,16.433 446.104,16.747C442.459,21.074 436.25,22.549 430.241,24.334C424.584,26.015 419.099,27.978 416.516,33.421Z" style="fill:rgb(67,255,0);"/>
                    </g>
                </g>
                <g transform="matrix(-1.87963,0.514013,-0.507469,-2.02447,2388.93,593.579)">
                    <g id="teeth" transform="matrix(1.72895,0,0,1.22336,612.051,-18.4116)">
                        <g>
                            <g transform="matrix(-0.303871,5.25047e-17,-7.46548e-17,-0.868805,241.972,234.519)">
                                <path d="M685.614,123.733C698.365,132.153 711.91,139.346 725.82,145.645C709.656,148.955 693.31,151.363 676.89,152.969C681.354,143.778 684.475,133.908 685.614,123.733Z" style="fill:white;"/>
                            </g>
                            <g transform="matrix(-0.303871,5.25047e-17,-7.46548e-17,-0.868805,253.815,234.519)">
                                <path d="M685.47,127.567C694.661,137.123 705.051,145.49 715.988,152.957C699.241,154.598 682.412,155.404 665.586,155.406C673.343,147.021 680.251,137.755 685.47,127.567Z" style="fill:white;"/>
                            </g>
                            <g transform="matrix(-0.303871,5.25047e-17,-7.46548e-17,-0.868805,265.688,234.519)">
                                <path d="M684.745,127.572C689.974,137.759 696.891,147.023 704.656,155.406C687.829,155.408 671,154.606 654.253,152.969C665.181,145.5 675.564,137.13 684.745,127.572Z" style="fill:white;"/>
                            </g>
                            <g transform="matrix(-0.303871,5.25047e-17,-7.46548e-17,-0.868805,277.56,234.519)">
                                <path d="M684.6,123.733C685.738,133.908 688.86,143.778 693.323,152.969C676.904,151.363 660.557,148.955 644.393,145.645C658.304,139.346 671.849,132.153 684.6,123.733Z" style="fill:white;"/>
                            </g>
                        </g>
                    </g>
                </g>
            </g>
        </g>
    </g>
</svg>
